# xmcd CD database file
#
# Track frame offsets:
#	150
#	14480
#	16836
#	27546
#	28471
#	45136
#	46133
#	62702
#	64184
#	79400
#	89809
#	92768
#	102530
#	104849
#	117588
#	120556
#	134276
#	147397
#	148745
#
# Disc length: 2205 seconds
#
# Revision: 0
# Processed by: cddbd v1.5.2PL0 Copyright (c) Steve Scherf et al.
# Submitted via: CDex 1.70beta2
#
DISCID=1e089b13
DTITLE=Marianne Krognes - Jeg skal bare
DYEAR=2004
DGENRE=Barnesanger
TTITLE0=Vi er indianere vi
TTITLE1=Kottet
TTITLE2=Slipp meg ut
TTITLE3=Prompen
TTITLE4=Jeg skal bare . . . 
TTITLE5=Voksne sier mye rart
TTITLE6=Morgenstund
TTITLE7=Sykkelturen
TTITLE8=Skrubbsår og kirsebær
TTITLE9=Det er så fett
TTITLE10=Petras frokostkake
TTITLE11=Ditt og datt
TTITLE12=Jeg rømmer
TTITLE13=Rotte-Jan og gutta
TTITLE14=Den dummeste vitsen
TTITLE15=Ronald Dinosaurus
TTITLE16=Kji
TTITLE17=Det er dumt
TTITLE18=Sommerbrev til Ulla
EXTD=YEAR: 2004
EXTT0=
EXTT1=
EXTT2=
EXTT3=
EXTT4=
EXTT5=
EXTT6=
EXTT7=
EXTT8=
EXTT9=
EXTT10=
EXTT11=
EXTT12=
EXTT13=
EXTT14=
EXTT15=
EXTT16=
EXTT17=
EXTT18=
PLAYORDER=
